<svg width="208" height="50" viewBox="0 0 208 50" fill="none" xmlns="http://www.w3.org/2000/svg">
<path d="M62.5334 35.76H77.1091V31.3697H67.7139V14.8331H62.5334V35.76Z" fill="#2F234F"/>
<path d="M85.7446 32.8332C83.6666 32.8332 82.5837 31.0185 82.5837 28.2966C82.5837 25.5746 83.6666 23.7307 85.7446 23.7307C87.8227 23.7307 88.9349 25.5746 88.9349 28.2966C88.9349 31.0185 87.8227 32.8332 85.7446 32.8332ZM85.7739 36.2283C90.6032 36.2283 93.7642 32.8039 93.7642 28.2966C93.7642 23.7893 90.6032 20.3649 85.7739 20.3649C80.9739 20.3649 77.7544 23.7893 77.7544 28.2966C77.7544 32.8039 80.9739 36.2283 85.7739 36.2283Z" fill="#2F234F"/>
<path d="M102.123 40.9405C104.348 40.9405 106.309 40.4429 107.626 39.2722C108.826 38.1892 109.616 36.5502 109.616 34.2965V20.7746H105.05V22.3844H104.991C104.113 21.1258 102.767 20.3356 100.777 20.3356C97.0597 20.3356 94.4841 23.438 94.4841 27.8283C94.4841 32.4234 97.6158 34.9404 100.982 34.9404C102.796 34.9404 103.938 34.2087 104.816 33.2136H104.933V34.7063C104.933 36.5209 104.084 37.5746 102.065 37.5746C100.484 37.5746 99.6939 36.9014 99.4305 36.1112H94.8061C95.2744 39.2429 97.9963 40.9405 102.123 40.9405ZM102.094 31.399C100.309 31.399 99.1378 29.9356 99.1378 27.6819C99.1378 25.399 100.309 23.9356 102.094 23.9356C104.084 23.9356 105.138 25.6331 105.138 27.6526C105.138 29.76 104.172 31.399 102.094 31.399Z" fill="#2F234F"/>
<path d="M119.004 32.8332C116.926 32.8332 115.843 31.0185 115.843 28.2966C115.843 25.5746 116.926 23.7307 119.004 23.7307C121.082 23.7307 122.194 25.5746 122.194 28.2966C122.194 31.0185 121.082 32.8332 119.004 32.8332ZM119.033 36.2283C123.862 36.2283 127.023 32.8039 127.023 28.2966C127.023 23.7893 123.862 20.3649 119.033 20.3649C114.233 20.3649 111.014 23.7893 111.014 28.2966C111.014 32.8039 114.233 36.2283 119.033 36.2283Z" fill="#2F234F"/>
<path d="M128.417 35.76H133.188V20.7746H128.417V35.76ZM128.417 18.6965H133.188V14.8331H128.417V18.6965Z" fill="#2F234F"/>
<path d="M135.257 40.7063H140.028V34.2087H140.087C141.023 35.4673 142.399 36.2283 144.33 36.2283C148.252 36.2283 150.857 33.1258 150.857 28.2673C150.857 23.76 148.428 20.3356 144.448 20.3356C142.399 20.3356 140.935 21.2429 139.911 22.5892H139.823V20.7746H135.257V40.7063ZM143.101 32.5405C141.052 32.5405 139.882 30.8722 139.882 28.4429C139.882 26.0136 140.935 24.1697 143.013 24.1697C145.062 24.1697 146.028 25.8673 146.028 28.4429C146.028 30.9892 144.916 32.5405 143.101 32.5405Z" fill="#2F234F"/>
<path d="M158.624 36.2283C162.546 36.2283 165.444 34.5307 165.444 31.2526C165.444 27.4185 162.342 26.7453 159.707 26.3063C157.805 25.9551 156.107 25.8087 156.107 24.7551C156.107 23.8185 157.015 23.3795 158.185 23.3795C159.503 23.3795 160.41 23.7892 160.585 25.1356H164.976C164.742 22.1795 162.459 20.3356 158.215 20.3356C154.673 20.3356 151.746 21.9746 151.746 25.1356C151.746 28.6478 154.527 29.3502 157.132 29.7892C159.122 30.1405 160.937 30.2868 160.937 31.6331C160.937 32.599 160.029 33.1258 158.595 33.1258C157.015 33.1258 156.02 32.3941 155.844 30.9014H151.337C151.483 34.2087 154.234 36.2283 158.624 36.2283Z" fill="#2F234F"/>
<path d="M171.924 36.199C174.002 36.199 175.319 35.3795 176.402 33.9161H176.49V35.76H181.056V20.7747H176.285V29.1454C176.285 30.9308 175.29 32.16 173.651 32.16C172.129 32.16 171.397 31.2527 171.397 29.6137V20.7747H166.656V30.6088C166.656 33.9454 168.471 36.199 171.924 36.199Z" fill="#2F234F"/>
<path d="M183.132 35.76H187.902V27.36C187.902 25.5746 188.78 24.3161 190.273 24.3161C191.707 24.3161 192.38 25.2526 192.38 26.8624V35.76H197.151V27.36C197.151 25.5746 198 24.3161 199.522 24.3161C200.956 24.3161 201.629 25.2526 201.629 26.8624V35.76H206.4V26.0136C206.4 22.6478 204.702 20.3356 201.307 20.3356C199.376 20.3356 197.766 21.1551 196.595 22.9697H196.536C195.776 21.36 194.283 20.3356 192.322 20.3356C190.156 20.3356 188.722 21.36 187.785 22.9112H187.697V20.7746H183.132V35.76Z" fill="#2F234F"/>
<path fill-rule="evenodd" clip-rule="evenodd" d="M24.514 49.1746C37.9845 49.1746 48.9042 38.2547 48.9042 24.7844C48.9042 11.314 37.9845 0.394165 24.514 0.394165C11.0436 0.394165 0.123779 11.314 0.123779 24.7844C0.123779 38.2547 11.0436 49.1746 24.514 49.1746ZM28.2786 19.2387C30.3576 17.1596 30.3576 13.7887 28.2786 11.7096C26.1995 9.63048 22.8286 9.63048 20.7495 11.7096C18.6704 13.7887 18.6704 17.1596 20.7495 19.2387L24.514 23.0033L28.2786 19.2387ZM30.0597 28.549C32.1389 30.6281 35.5097 30.6281 37.5889 28.549C39.6679 26.4698 39.6679 23.099 37.5889 21.0198C35.5097 18.9408 32.1389 18.9408 30.0597 21.0198L26.2952 24.7845L30.0597 28.549ZM28.2786 37.8592C30.3576 35.7801 30.3576 32.4092 28.2786 30.3301L24.514 26.5656L20.7495 30.3301C18.6704 32.4092 18.6704 35.7801 20.7495 37.8592C22.8286 39.9384 26.1995 39.9384 28.2786 37.8592ZM11.4392 28.549C9.36011 26.4698 9.36011 23.099 11.4392 21.0198C13.5184 18.9408 16.8892 18.9408 18.9684 21.0198L22.7329 24.7845L18.9684 28.549C16.8892 30.6281 13.5184 30.6281 11.4392 28.549Z" fill="#4920E4"/>
</svg>
