<svg width="187" height="40" viewBox="0 0 187 40" fill="none" xmlns="http://www.w3.org/2000/svg">
<g clip-path="url(#clip0_17_2203)">
<path fill-rule="evenodd" clip-rule="evenodd" d="M19.87 4.567L22.507 0L29.983 4.317L27.347 8.883C26.884 9.684 27.577 10.658 28.485 10.483L33.537 9.508L35.172 17.985L30.12 18.959C21.948 20.535 15.709 11.775 19.87 4.567Z" fill="#3A724F"/>
<path fill-rule="evenodd" clip-rule="evenodd" d="M15.302 35.4329L12.665 39.9999L5.188 35.6839L7.825 31.1169C8.288 30.3159 7.595 29.3419 6.686 29.5169L1.635 30.4909L0 22.0149L5.052 21.0409C13.224 19.4649 19.462 28.2249 15.302 35.4329Z" fill="#DC8E43"/>
<path fill-rule="evenodd" clip-rule="evenodd" d="M15.53 4.567L12.894 0L5.41701 4.317L8.05401 8.883C8.51601 9.684 7.82401 10.658 6.91501 10.483L1.86301 9.508L0.230011 17.985L5.28101 18.959C13.454 20.535 19.693 11.775 15.531 4.567H15.53Z" fill="#14424C"/>
<path fill-rule="evenodd" clip-rule="evenodd" d="M19.65 35.4329L22.285 39.9999L29.762 35.6839L27.125 31.1169C26.663 30.3159 27.355 29.3419 28.264 29.5169L33.315 30.4909L34.95 22.0149L29.898 21.0409C21.726 19.4649 15.488 28.2249 19.648 35.4329H19.65Z" fill="#C85D1B"/>
<path d="M163.114 30.153V21.653C163.114 20.475 163.385 19.418 163.927 18.483C164.488 17.529 165.283 16.781 166.312 16.238C167.341 15.696 168.566 15.425 169.987 15.425C170.65 15.4185 171.311 15.5033 171.951 15.677C172.55 15.827 173.092 16.042 173.578 16.322C174.083 16.584 174.513 16.902 174.869 17.276H174.925C175.306 16.8967 175.741 16.5752 176.215 16.322C176.736 16.0352 177.293 15.8183 177.871 15.677C178.521 15.5046 179.191 15.4198 179.863 15.425C181.284 15.425 182.509 15.695 183.538 16.238C184.566 16.781 185.361 17.528 185.922 18.483C186.484 19.418 186.764 20.474 186.764 21.653V30.153H182.387V21.793C182.387 21.326 182.266 20.905 182.023 20.531C181.8 20.1398 181.481 19.8116 181.097 19.577C180.692 19.3303 180.224 19.2038 179.75 19.212C179.245 19.212 178.787 19.334 178.376 19.577C177.991 19.8113 177.673 20.1396 177.45 20.531C177.223 20.9124 177.106 21.3493 177.113 21.793V30.153H172.765V21.793C172.765 21.326 172.643 20.905 172.4 20.531C172.172 20.1342 171.843 19.8049 171.446 19.577C171.041 19.3303 170.573 19.2038 170.099 19.212C169.594 19.212 169.136 19.334 168.725 19.577C168.34 19.8113 168.022 20.1396 167.799 20.531C167.573 20.9126 167.456 21.3493 167.462 21.793V30.153H163.114ZM153.603 30.49C152.126 30.49 150.844 30.21 149.76 29.648C148.694 29.068 147.871 28.292 147.291 27.32C146.711 26.329 146.421 25.234 146.421 24.037V15.761H150.77V23.925C150.77 24.43 150.891 24.898 151.134 25.328C151.377 25.739 151.705 26.076 152.116 26.338C152.546 26.581 153.033 26.703 153.575 26.703C154.099 26.703 154.566 26.581 154.978 26.338C155.408 26.076 155.745 25.739 155.988 25.328C156.231 24.898 156.353 24.43 156.353 23.925V15.761H160.701V24.037C160.701 25.234 160.42 26.329 159.859 27.32C159.298 28.292 158.485 29.069 157.419 29.648C156.371 30.209 155.099 30.49 153.603 30.49ZM132.414 30.153V26.703H139.344C139.531 26.703 139.699 26.665 139.849 26.59C139.998 26.497 140.12 26.375 140.213 26.226C140.305 26.0786 140.353 25.9085 140.353 25.735C140.353 25.5615 140.305 25.3914 140.213 25.244C140.126 25.0998 139.999 24.983 139.849 24.907C139.697 24.8131 139.522 24.7645 139.344 24.767H136.819C135.883 24.767 135.032 24.617 134.266 24.318C133.538 24.0166 132.914 23.5096 132.47 22.859C132.04 22.186 131.825 21.316 131.825 20.25C131.825 19.427 132.021 18.679 132.414 18.006C132.823 17.3351 133.391 16.7758 134.069 16.378C134.776 15.9676 135.58 15.7545 136.398 15.761H143.327V19.24H137.071C136.823 19.235 136.582 19.3256 136.398 19.493C136.316 19.5732 136.251 19.6692 136.208 19.7754C136.164 19.8815 136.143 19.9953 136.145 20.11C136.145 20.372 136.23 20.596 136.398 20.783C136.582 20.9504 136.823 21.041 137.071 21.036H139.54C140.587 21.036 141.485 21.195 142.233 21.512C143 21.812 143.589 22.298 144.001 22.972C144.431 23.645 144.646 24.514 144.646 25.58C144.646 26.422 144.431 27.189 144.001 27.88C143.593 28.5688 143.013 29.1395 142.317 29.536C141.625 29.948 140.84 30.153 139.961 30.153H132.414ZM122.94 15.425C124.156 15.425 125.231 15.621 126.166 16.014C127.084 16.3642 127.91 16.9208 128.579 17.641C129.261 18.3466 129.787 19.1879 130.122 20.11C130.477 21.045 130.655 22.083 130.655 23.224C130.655 24.645 130.356 25.908 129.757 27.011C129.204 28.0681 128.369 28.9516 127.345 29.564C126.316 30.181 125.119 30.49 123.754 30.49C123.174 30.49 122.622 30.415 122.098 30.266C121.602 30.1201 121.129 29.9025 120.696 29.62C120.287 29.3428 119.935 28.9906 119.658 28.582H119.573V36.242H115.225V23.223C115.225 21.633 115.543 20.258 116.179 19.099C116.796 17.9582 117.731 17.0219 118.872 16.405C120.032 15.751 121.388 15.424 122.94 15.424V15.425ZM122.94 19.184C122.267 19.184 121.678 19.352 121.173 19.689C120.686 20.007 120.312 20.456 120.05 21.036C119.789 21.596 119.658 22.233 119.658 22.943C119.658 23.654 119.789 24.29 120.05 24.851C120.312 25.412 120.686 25.861 121.173 26.198C121.678 26.516 122.267 26.675 122.94 26.675C123.613 26.675 124.193 26.515 124.679 26.198C125.168 25.8586 125.556 25.3931 125.802 24.851C126.082 24.29 126.222 23.654 126.222 22.943C126.222 22.233 126.082 21.597 125.802 21.036C125.54 20.456 125.166 20.006 124.679 19.689C124.193 19.352 123.613 19.184 122.94 19.184ZM108.617 30.153V15.761H112.994V30.153H108.617ZM110.805 14.134C110.113 14.134 109.515 13.882 109.01 13.377C108.505 12.872 108.252 12.273 108.252 11.581C108.252 10.889 108.505 10.291 109.01 9.786C109.515 9.262 110.113 9 110.805 9C111.497 9 112.096 9.262 112.601 9.786C113.106 10.291 113.358 10.889 113.358 11.581C113.358 12.273 113.106 12.871 112.601 13.377C112.096 13.882 111.497 14.134 110.805 14.134ZM99.105 30.49C97.628 30.49 96.3 30.163 95.121 29.508C93.9644 28.874 92.9966 27.9448 92.316 26.815C91.643 25.674 91.306 24.393 91.306 22.971C91.306 21.531 91.643 20.25 92.316 19.128C92.9966 17.9982 93.9644 17.069 95.121 16.435C96.3 15.761 97.628 15.425 99.105 15.425C100.583 15.425 101.901 15.761 103.061 16.435C104.213 17.0646 105.173 17.9954 105.838 19.128C106.53 20.25 106.876 21.531 106.876 22.971C106.876 24.393 106.53 25.674 105.838 26.815C105.173 27.9476 104.213 28.8784 103.061 29.508C101.883 30.163 100.564 30.49 99.105 30.49ZM99.105 26.703C99.797 26.703 100.396 26.534 100.901 26.198C101.406 25.8614 101.813 25.3965 102.079 24.851C102.36 24.29 102.5 23.654 102.5 22.943C102.5 22.251 102.36 21.625 102.079 21.063C101.813 20.5179 101.406 20.0533 100.901 19.717C100.396 19.38 99.797 19.212 99.105 19.212C98.413 19.212 97.805 19.38 97.282 19.717C96.7766 20.0537 96.3697 20.5185 96.103 21.064C95.8172 21.649 95.6734 22.293 95.683 22.944C95.683 23.654 95.823 24.29 96.103 24.851C96.3698 25.3964 96.7767 25.8613 97.282 26.198C97.805 26.534 98.413 26.703 99.105 26.703ZM77.174 35.849V32.117H84.355C84.636 32.117 84.87 32.024 85.057 31.837C85.1482 31.7564 85.2205 31.6568 85.2689 31.5452C85.3173 31.4335 85.3405 31.3126 85.337 31.191V28.021H85.253C84.8978 28.4341 84.4927 28.8016 84.047 29.115C83.635 29.415 83.167 29.639 82.644 29.789C82.0874 29.9454 81.5111 30.0208 80.933 30.013C79.661 30.013 78.52 29.713 77.51 29.115C76.519 28.498 75.733 27.647 75.153 26.562C74.593 25.478 74.312 24.243 74.312 22.859C74.312 21.494 74.602 20.25 75.182 19.128C75.78 18.006 76.65 17.108 77.791 16.435C78.931 15.761 80.325 15.425 81.971 15.425C83.542 15.425 84.898 15.752 86.039 16.407C87.1848 17.0289 88.1215 17.9751 88.732 19.127C89.368 20.287 89.686 21.653 89.686 23.224V31.64C89.686 32.93 89.303 33.95 88.536 34.698C87.788 35.465 86.75 35.848 85.422 35.848L77.174 35.849ZM81.999 26.366C82.672 26.366 83.252 26.216 83.739 25.917C84.2195 25.605 84.6068 25.169 84.86 24.655C85.126 24.114 85.2606 23.5178 85.253 22.915C85.253 22.242 85.123 21.625 84.861 21.064C84.599 20.503 84.225 20.063 83.738 19.745C83.252 19.408 82.672 19.24 81.998 19.24C81.344 19.24 80.764 19.399 80.259 19.717C79.773 20.035 79.399 20.465 79.137 21.007C78.876 21.55 78.745 22.157 78.745 22.831C78.745 23.486 78.875 24.084 79.137 24.627C79.399 25.15 79.773 25.571 80.26 25.889C80.764 26.207 81.344 26.366 81.999 26.366ZM65.473 30.49C63.996 30.49 62.668 30.163 61.49 29.508C60.333 28.8742 59.3648 27.945 58.684 26.815C58.011 25.674 57.674 24.393 57.674 22.971C57.674 21.531 58.011 20.25 58.684 19.128C59.3648 17.998 60.333 17.0688 61.49 16.435C62.668 15.761 63.996 15.425 65.473 15.425C66.951 15.425 68.269 15.761 69.429 16.435C70.5814 17.0647 71.5412 17.9955 72.206 19.128C72.898 20.25 73.244 21.531 73.244 22.971C73.244 24.393 72.898 25.674 72.206 26.815C71.5412 27.9475 70.5814 28.8783 69.429 29.508C68.251 30.163 66.932 30.49 65.473 30.49ZM65.473 26.703C66.165 26.703 66.763 26.534 67.269 26.198C67.7739 25.8611 68.1804 25.3963 68.447 24.851C68.727 24.29 68.867 23.654 68.867 22.943C68.867 22.251 68.727 21.625 68.447 21.063C68.1803 20.518 67.7738 20.0535 67.269 19.717C66.764 19.38 66.165 19.212 65.473 19.212C64.781 19.212 64.173 19.38 63.65 19.717C63.1446 20.0537 62.7377 20.5185 62.471 21.064C62.1853 21.649 62.0414 22.293 62.051 22.944C62.051 23.654 62.191 24.29 62.471 24.851C62.7378 25.3964 63.1447 25.8613 63.65 26.198C64.173 26.534 64.781 26.703 65.473 26.703ZM51.547 30.153C50.331 30.153 49.265 29.883 48.349 29.34C47.4581 28.8234 46.7219 28.0776 46.217 27.18C45.712 26.282 45.459 25.29 45.459 24.206V10.515H50.172V24.542C50.172 24.992 50.332 25.384 50.649 25.721C50.967 26.057 51.359 26.226 51.827 26.226H57.017V30.153H51.547Z" fill="#14424C"/>
</g>
<defs>
<clipPath id="clip0_17_2203">
<rect width="187" height="40" fill="white"/>
</clipPath>
</defs>
</svg>
