<svg width="161" height="49" viewBox="0 0 161 49" fill="none" xmlns="http://www.w3.org/2000/svg">
<g clip-path="url(#clip0_3_34)">
<path d="M20 4.5C31.046 4.5 40 13.454 40 24.5V38.5C40 40.0913 39.3679 41.6174 38.2426 42.7426C37.1174 43.8679 35.5913 44.5 34 44.5H21V35.726C21 33.724 21.122 31.65 22.172 29.946C22.9237 28.7248 23.9293 27.6796 25.1205 26.8813C26.3118 26.0829 27.6607 25.5501 29.076 25.319L29.459 25.257C29.6169 25.203 29.754 25.101 29.851 24.9653C29.9481 24.8296 30.0002 24.6669 30.0002 24.5C30.0002 24.3331 29.9481 24.1704 29.851 24.0347C29.754 23.899 29.6169 23.797 29.459 23.743L29.076 23.681C27.0082 23.3432 25.0987 22.3644 23.6171 20.8829C22.1356 19.4013 21.1568 17.4918 20.819 15.424L20.757 15.041C20.703 14.8831 20.601 14.746 20.4653 14.649C20.3295 14.5519 20.1669 14.4997 20 14.4997C19.8331 14.4997 19.6704 14.5519 19.5347 14.649C19.399 14.746 19.297 14.8831 19.243 15.041L19.181 15.424C18.9499 16.8393 18.4171 18.1883 17.6188 19.3795C16.8204 20.5707 15.7752 21.5763 14.554 22.328C12.85 23.378 10.776 23.5 8.77399 23.5H0.0239868C0.546987 12.919 9.28999 4.5 20 4.5Z" fill="#FFE7C2"/>
<path d="M0 25.5H8.774C10.776 25.5 12.85 25.622 14.554 26.672C15.886 27.4928 17.0072 28.614 17.828 29.946C18.878 31.65 19 33.724 19 35.726V44.5H6C4.4087 44.5 2.88258 43.8679 1.75736 42.7426C0.632141 41.6174 0 40.0913 0 38.5L0 25.5ZM40 6.5C40 7.03043 39.7893 7.53914 39.4142 7.91421C39.0391 8.28929 38.5304 8.5 38 8.5C37.4696 8.5 36.9609 8.28929 36.5858 7.91421C36.2107 7.53914 36 7.03043 36 6.5C36 5.96957 36.2107 5.46086 36.5858 5.08579C36.9609 4.71071 37.4696 4.5 38 4.5C38.5304 4.5 39.0391 4.71071 39.4142 5.08579C39.7893 5.46086 40 5.96957 40 6.5Z" fill="#FFE7C2"/>
</g>
<path d="M66.032 27.916V35.5H59.728V12.844H69.136C71.8667 12.844 73.9467 13.5373 75.376 14.924C76.8267 16.2893 77.552 18.124 77.552 20.428C77.552 21.8573 77.232 23.1373 76.592 24.268C75.952 25.3987 74.992 26.2947 73.712 26.956C72.4533 27.596 70.928 27.916 69.136 27.916H66.032ZM68.432 22.956C70.2667 22.956 71.184 22.1133 71.184 20.428C71.184 18.764 70.2667 17.932 68.432 17.932H66.032V22.956H68.432ZM88.4893 17.324C90.2813 17.324 91.8813 17.6973 93.2893 18.444C94.7186 19.1693 95.8386 20.236 96.6493 21.644C97.4599 23.0307 97.8653 24.652 97.8653 26.508C97.8653 28.3853 97.4599 30.0173 96.6493 31.404C95.8386 32.7907 94.7186 33.8573 93.2893 34.604C91.8813 35.3507 90.2813 35.724 88.4893 35.724C86.6973 35.724 85.0866 35.3507 83.6573 34.604C82.2279 33.8573 81.1079 32.7907 80.2973 31.404C79.4866 30.0173 79.0813 28.3853 79.0813 26.508C79.0813 24.6307 79.4866 22.9987 80.2973 21.612C81.1079 20.2253 82.2279 19.1693 83.6573 18.444C85.0866 17.6973 86.6973 17.324 88.4893 17.324ZM88.4893 22.764C87.6146 22.764 86.8893 23.084 86.3133 23.724C85.7373 24.364 85.4493 25.292 85.4493 26.508C85.4493 27.7453 85.7373 28.684 86.3133 29.324C86.8893 29.964 87.6146 30.284 88.4893 30.284C89.3426 30.284 90.0573 29.964 90.6333 29.324C91.2093 28.6627 91.4973 27.724 91.4973 26.508C91.4973 25.292 91.2093 24.364 90.6333 23.724C90.0573 23.084 89.3426 22.764 88.4893 22.764ZM106.688 20.908C107.392 19.8413 108.278 18.988 109.344 18.348C110.411 17.708 111.542 17.388 112.736 17.388V24.108H110.912C109.504 24.108 108.448 24.3853 107.744 24.94C107.04 25.4733 106.688 26.412 106.688 27.756V35.5H100.384V17.548H106.688V20.908ZM125.51 30.124V35.5H122.918C120.72 35.5 119.003 34.956 117.766 33.868C116.528 32.78 115.91 30.9773 115.91 28.46V22.796H113.606V17.548H115.91V13.196H122.214V17.548H125.446V22.796H122.214V28.588C122.214 29.1427 122.331 29.5373 122.566 29.772C122.822 30.0067 123.238 30.124 123.814 30.124H125.51ZM139.072 30.124V35.5H136.48C134.283 35.5 132.566 34.956 131.328 33.868C130.091 32.78 129.472 30.9773 129.472 28.46V22.796H127.168V17.548H129.472V13.196H135.776V17.548H139.008V22.796H135.776V28.588C135.776 29.1427 135.894 29.5373 136.128 29.772C136.384 30.0067 136.8 30.124 137.376 30.124H139.072ZM150.427 17.324C152.219 17.324 153.819 17.6973 155.227 18.444C156.656 19.1693 157.776 20.236 158.587 21.644C159.397 23.0307 159.803 24.652 159.803 26.508C159.803 28.3853 159.397 30.0173 158.587 31.404C157.776 32.7907 156.656 33.8573 155.227 34.604C153.819 35.3507 152.219 35.724 150.427 35.724C148.635 35.724 147.024 35.3507 145.595 34.604C144.165 33.8573 143.045 32.7907 142.235 31.404C141.424 30.0173 141.019 28.3853 141.019 26.508C141.019 24.6307 141.424 22.9987 142.235 21.612C143.045 20.2253 144.165 19.1693 145.595 18.444C147.024 17.6973 148.635 17.324 150.427 17.324ZM150.427 22.764C149.552 22.764 148.827 23.084 148.251 23.724C147.675 24.364 147.387 25.292 147.387 26.508C147.387 27.7453 147.675 28.684 148.251 29.324C148.827 29.964 149.552 30.284 150.427 30.284C151.28 30.284 151.995 29.964 152.571 29.324C153.147 28.6627 153.435 27.724 153.435 26.508C153.435 25.292 153.147 24.364 152.571 23.724C151.995 23.084 151.28 22.764 150.427 22.764Z" fill="white"/>
<defs>
<clipPath id="clip0_3_34">
<rect width="40" height="40" fill="white" transform="translate(0 4.5)"/>
</clipPath>
</defs>
</svg>
