<svg width="164" height="40" viewBox="0 0 164 40" fill="none" xmlns="http://www.w3.org/2000/svg">
<g clip-path="url(#clip0_17_2237)">
<path d="M48.0756 28.2463H59.736V24.7341H52.22V11.5049H48.0756V28.2463Z" fill="#3C2B1F"/>
<path d="M66.6446 25.9048C64.9822 25.9048 64.1159 24.4531 64.1159 22.2755C64.1159 20.098 64.9822 18.6229 66.6446 18.6229C68.3071 18.6229 69.1968 20.098 69.1968 22.2755C69.1968 24.4531 68.3071 25.9048 66.6446 25.9048ZM66.6681 28.6209C70.5315 28.6209 73.0602 25.8814 73.0602 22.2755C73.0602 18.6697 70.5315 15.9302 66.6681 15.9302C62.8281 15.9302 60.2524 18.6697 60.2524 22.2755C60.2524 25.8814 62.8281 28.6209 66.6681 28.6209Z" fill="#3C2B1F"/>
<path d="M79.7474 32.3906C81.527 32.3906 83.0957 31.9926 84.1494 31.056C85.1094 30.1897 85.7416 28.8784 85.7416 27.0755V16.258H82.0889V17.5458H82.0421C81.3397 16.5389 80.2626 15.9067 78.6704 15.9067C75.6967 15.9067 73.6362 18.3887 73.6362 21.9009C73.6362 25.577 76.1416 27.5906 78.8343 27.5906C80.286 27.5906 81.1992 27.0053 81.9016 26.2092H81.9953V27.4033C81.9953 28.855 81.3162 29.698 79.7006 29.698C78.4362 29.698 77.804 29.1594 77.5933 28.5272H73.8938C74.2684 31.0326 76.446 32.3906 79.7474 32.3906ZM79.724 24.7575C78.2957 24.7575 77.3592 23.5867 77.3592 21.7838C77.3592 19.9575 78.2957 18.7867 79.724 18.7867C81.3162 18.7867 82.1592 20.1448 82.1592 21.7604C82.1592 23.4463 81.3865 24.7575 79.724 24.7575Z" fill="#3C2B1F"/>
<path d="M93.2522 25.9048C91.5897 25.9048 90.7234 24.4531 90.7234 22.2755C90.7234 20.098 91.5897 18.6229 93.2522 18.6229C94.9146 18.6229 95.8044 20.098 95.8044 22.2755C95.8044 24.4531 94.9146 25.9048 93.2522 25.9048ZM93.2756 28.6209C97.139 28.6209 99.6673 25.8814 99.6673 22.2755C99.6673 18.6697 97.139 15.9302 93.2756 15.9302C89.4356 15.9302 86.86 18.6697 86.86 22.2755C86.86 25.8814 89.4356 28.6209 93.2756 28.6209Z" fill="#3C2B1F"/>
<path d="M100.782 28.2463H104.599V16.2581H100.782V28.2463ZM100.782 14.5956H104.599V11.5049H100.782V14.5956Z" fill="#3C2B1F"/>
<path d="M106.255 32.2033H110.071V27.0053H110.118C110.867 28.0121 111.968 28.6209 113.513 28.6209C116.651 28.6209 118.735 26.1389 118.735 22.2521C118.735 18.6463 116.791 15.9067 113.607 15.9067C111.968 15.9067 110.797 16.6326 109.978 17.7097H109.907V16.258H106.255V32.2033ZM112.53 25.6706C110.891 25.6706 109.954 24.336 109.954 22.3926C109.954 20.4492 110.797 18.9741 112.46 18.9741C114.099 18.9741 114.871 20.3321 114.871 22.3926C114.871 24.4297 113.981 25.6706 112.53 25.6706Z" fill="#3C2B1F"/>
<path d="M124.948 28.6209C128.086 28.6209 130.404 27.2628 130.404 24.6404C130.404 21.5731 127.922 21.0345 125.815 20.6833C124.293 20.4023 122.935 20.2853 122.935 19.4423C122.935 18.6931 123.66 18.3419 124.597 18.3419C125.651 18.3419 126.377 18.6697 126.517 19.7467H130.029C129.842 17.3819 128.016 15.9067 124.62 15.9067C121.787 15.9067 119.446 17.218 119.446 19.7467C119.446 22.5565 121.67 23.1184 123.754 23.4697C125.346 23.7506 126.798 23.8677 126.798 24.9448C126.798 25.7175 126.072 26.1389 124.925 26.1389C123.66 26.1389 122.864 25.5536 122.724 24.3594H119.118C119.235 27.0053 121.436 28.6209 124.948 28.6209Z" fill="#3C2B1F"/>
<path d="M135.588 28.5973C137.251 28.5973 138.304 27.9417 139.171 26.771H139.241V28.2461H142.894V16.2578H139.077V22.9544C139.077 24.3827 138.281 25.3661 136.97 25.3661C135.752 25.3661 135.167 24.6403 135.167 23.329V16.2578H131.374V24.1251C131.374 26.7944 132.825 28.5973 135.588 28.5973Z" fill="#3C2B1F"/>
<path d="M144.554 28.2463H148.371V21.5263C148.371 20.098 149.073 19.0911 150.267 19.0911C151.415 19.0911 151.953 19.8404 151.953 21.1282V28.2463H155.77V21.5263C155.77 20.098 156.449 19.0911 157.666 19.0911C158.814 19.0911 159.352 19.8404 159.352 21.1282V28.2463H163.169V20.4492C163.169 17.7565 161.811 15.9067 159.095 15.9067C157.549 15.9067 156.262 16.5623 155.325 18.0141H155.278C154.669 16.7263 153.475 15.9067 151.906 15.9067C150.174 15.9067 149.026 16.7263 148.277 17.9672H148.207V16.258H144.554V28.2463Z" fill="#3C2B1F"/>
<path d="M24.7902 1.92855L20.9531 0.900391L17.7196 12.9683L14.8002 2.07331L10.9631 3.10146L14.1172 14.8727L6.26099 7.01647L3.45202 9.82543L12.0693 18.4428L1.33785 15.5673L0.309692 19.4044L12.0352 22.5462C11.9009 21.9672 11.8299 21.3639 11.8299 20.744C11.8299 16.3561 15.387 12.799 19.7749 12.799C24.1628 12.799 27.7199 16.3561 27.7199 20.744C27.7199 21.3599 27.6497 21.9595 27.5171 22.5351L38.1734 25.3904L39.2015 21.5533L27.4294 18.399L38.1616 15.5233L37.1334 11.6862L25.3618 14.8404L33.218 6.98421L30.409 4.17525L21.9113 12.673L24.7902 1.92855Z" fill="#F97316"/>
<path d="M27.5066 22.5801C27.1777 23.9709 26.4831 25.2204 25.5302 26.2214L33.2502 33.9415L36.0591 31.1326L27.5066 22.5801Z" fill="#F97316"/>
<path d="M25.4521 26.3022C24.4876 27.2873 23.2688 28.0224 21.902 28.4013L24.7111 38.8852L28.5482 37.857L25.4521 26.3022Z" fill="#F97316"/>
<path d="M21.7586 28.4394C21.1245 28.6024 20.4598 28.6891 19.7748 28.6891C19.041 28.6891 18.3303 28.5896 17.6557 28.4033L14.844 38.8968L18.6811 39.9249L21.7586 28.4394Z" fill="#F97316"/>
<path d="M17.5201 28.3644C16.1742 27.9668 14.977 27.2223 14.0322 26.2344L6.29321 33.9734L9.10218 36.7824L17.5201 28.3644Z" fill="#F97316"/>
<path d="M13.9676 26.1661C13.039 25.172 12.3626 23.9392 12.0407 22.5698L1.34961 25.4345L2.37776 29.2716L13.9676 26.1661Z" fill="#F97316"/>
</g>
<defs>
<clipPath id="clip0_17_2237">
<rect width="163.902" height="40" fill="white"/>
</clipPath>
</defs>
</svg>
