<svg width="163" height="40" viewBox="0 0 163 40" fill="none" xmlns="http://www.w3.org/2000/svg">
<g clip-path="url(#clip0_17_2264)">
<path d="M47.4446 28.0911H59.1051V24.5789H51.589V11.3496H47.4446V28.0911Z" fill="#2F234F"/>
<path d="M66.0135 25.75C64.3511 25.75 63.4848 24.2983 63.4848 22.1208C63.4848 19.9432 64.3511 18.4681 66.0135 18.4681C67.676 18.4681 68.5657 19.9432 68.5657 22.1208C68.5657 24.2983 67.676 25.75 66.0135 25.75ZM66.0369 28.4661C69.9004 28.4661 72.4291 25.7266 72.4291 22.1208C72.4291 18.5149 69.9004 15.7754 66.0369 15.7754C62.1969 15.7754 59.6213 18.5149 59.6213 22.1208C59.6213 25.7266 62.1969 28.4661 66.0369 28.4661Z" fill="#2F234F"/>
<path d="M79.1164 32.2359C80.8959 32.2359 82.4647 31.8378 83.5184 30.9012C84.4784 30.0349 85.1106 28.7237 85.1106 26.9207V16.1032H81.4579V17.391H81.411C80.7086 16.3841 79.6315 15.752 78.0393 15.752C75.0657 15.752 73.0052 18.2339 73.0052 21.7461C73.0052 25.4222 75.5106 27.4359 78.2032 27.4359C79.6549 27.4359 80.5681 26.8505 81.2706 26.0544H81.3642V27.2485C81.3642 28.7002 80.6852 29.5432 79.0696 29.5432C77.8052 29.5432 77.173 29.0046 76.9623 28.3724H73.2627C73.6374 30.8778 75.8149 32.2359 79.1164 32.2359ZM79.093 24.6027C77.6647 24.6027 76.7281 23.432 76.7281 21.629C76.7281 19.8027 77.6647 18.632 79.093 18.632C80.6852 18.632 81.5281 19.99 81.5281 21.6056C81.5281 23.2915 80.7554 24.6027 79.093 24.6027Z" fill="#2F234F"/>
<path d="M92.6212 25.75C90.9588 25.75 90.0924 24.2983 90.0924 22.1208C90.0924 19.9432 90.9588 18.4681 92.6212 18.4681C94.2836 18.4681 95.1734 19.9432 95.1734 22.1208C95.1734 24.2983 94.2836 25.75 92.6212 25.75ZM92.6446 28.4661C96.508 28.4661 99.0371 25.7266 99.0371 22.1208C99.0371 18.5149 96.508 15.7754 92.6446 15.7754C88.8046 15.7754 86.229 18.5149 86.229 22.1208C86.229 25.7266 88.8046 28.4661 92.6446 28.4661Z" fill="#2F234F"/>
<path d="M100.151 28.0911H103.968V16.1028H100.151V28.0911ZM100.151 14.4403H103.968V11.3496H100.151V14.4403Z" fill="#2F234F"/>
<path d="M105.623 32.0485H109.44V26.8505H109.487C110.236 27.8573 111.337 28.4661 112.882 28.4661C116.02 28.4661 118.103 25.9841 118.103 22.0973C118.103 18.4915 116.16 15.752 112.976 15.752C111.337 15.752 110.166 16.4778 109.346 17.5549H109.276V16.1032H105.623V32.0485ZM111.899 25.5159C110.26 25.5159 109.323 24.1812 109.323 22.2378C109.323 20.2944 110.166 18.8193 111.828 18.8193C113.467 18.8193 114.24 20.1773 114.24 22.2378C114.24 24.2749 113.35 25.5159 111.899 25.5159Z" fill="#2F234F"/>
<path d="M124.318 28.4661C127.456 28.4661 129.774 27.1081 129.774 24.4856C129.774 21.4183 127.292 20.8798 125.184 20.5285C123.662 20.2476 122.304 20.1305 122.304 19.2876C122.304 18.5383 123.03 18.1871 123.967 18.1871C125.02 18.1871 125.746 18.5149 125.887 19.592H129.399C129.212 17.2271 127.385 15.752 123.99 15.752C121.157 15.752 118.816 17.0632 118.816 19.592C118.816 22.4017 121.04 22.9637 123.124 23.3149C124.716 23.5959 126.168 23.7129 126.168 24.79C126.168 25.5627 125.442 25.9841 124.295 25.9841C123.03 25.9841 122.234 25.3988 122.094 24.2046H118.488C118.605 26.8505 120.806 28.4661 124.318 28.4661Z" fill="#2F234F"/>
<path d="M134.957 28.4425C136.619 28.4425 137.673 27.7869 138.54 26.6162H138.61V28.0913H142.262V16.103H138.446V22.7996C138.446 24.2279 137.65 25.2113 136.339 25.2113C135.121 25.2113 134.536 24.4855 134.536 23.1742V16.103H130.742V23.9703C130.742 26.6396 132.194 28.4425 134.957 28.4425Z" fill="#2F234F"/>
<path d="M143.923 28.0915H147.74V21.3715C147.74 19.9432 148.442 18.9363 149.636 18.9363C150.783 18.9363 151.322 19.6856 151.322 20.9734V28.0915H155.139V21.3715C155.139 19.9432 155.818 18.9363 157.035 18.9363C158.182 18.9363 158.721 19.6856 158.721 20.9734V28.0915H162.538V20.2944C162.538 17.6017 161.18 15.752 158.463 15.752C156.918 15.752 155.63 16.4076 154.694 17.8593H154.647C154.038 16.5715 152.844 15.752 151.275 15.752C149.542 15.752 148.395 16.5715 147.646 17.8124H147.576V16.1032H143.923V28.0915Z" fill="#2F234F"/>
<path fill-rule="evenodd" clip-rule="evenodd" d="M8.4431 3.79673C7.04733 4.77269 5.78518 5.9266 4.68952 7.22554C9.16689 6.80987 14.8552 7.48862 21.4593 10.7907C28.5116 14.3167 34.1904 14.436 38.1426 13.6736C37.784 12.5879 37.3325 11.5444 36.7978 10.5524C32.2736 11.0295 26.4736 10.3979 19.7141 7.0183C15.4219 4.87216 11.6382 3.98809 8.4431 3.79673ZM34.1549 6.79067C30.5821 2.79881 25.3901 0.286621 19.6111 0.286621C17.9141 0.286621 16.2674 0.503311 14.6977 0.910504C16.8237 1.49061 19.0822 2.33929 21.4593 3.52786C26.4082 6.00226 30.6808 6.79897 34.1549 6.79067ZM38.9876 17.4847C34.213 18.4276 27.6197 18.2339 19.7141 14.2811C12.3233 10.5857 6.44085 10.6323 2.47351 11.5139C2.26872 11.5594 2.06876 11.6072 1.87363 11.6569C1.35421 12.7866 0.939587 13.9745 0.642092 15.2081C0.959833 15.1232 1.28817 15.0425 1.62693 14.9672C6.44001 13.8976 13.2405 13.9441 21.4593 18.0535C28.8502 21.7489 34.7327 21.7024 38.7001 20.8207C38.836 20.7906 38.97 20.7594 39.1017 20.7272C39.1161 20.4196 39.1233 20.11 39.1233 19.7988C39.1233 19.0159 39.0773 18.2437 38.9876 17.4847ZM38.4646 24.8449C33.7363 25.6716 27.335 25.3543 19.7141 21.544C12.3233 17.8485 6.44085 17.8951 2.47351 18.7767C1.59287 18.9724 0.800665 19.2107 0.101827 19.4623C0.0999217 19.5742 0.0989685 19.6864 0.0989685 19.7988C0.0989685 30.5751 8.83486 39.311 19.6111 39.311C28.6424 39.311 36.2407 33.1753 38.4646 24.8449Z" fill="#7F57F1"/>
</g>
<defs>
<clipPath id="clip0_17_2264">
<rect width="162.927" height="40" fill="white"/>
</clipPath>
</defs>
</svg>
