<svg width="166" height="40" viewBox="0 0 166 40" fill="none" xmlns="http://www.w3.org/2000/svg">
<g clip-path="url(#clip0_17_2286)">
<path d="M50.0269 28.6082H61.6873V25.096H54.1712V11.8667H50.0269V28.6082Z" fill="#2F234F"/>
<path d="M68.5957 26.2666C66.9332 26.2666 66.0669 24.8149 66.0669 22.6374C66.0669 20.4598 66.9332 18.9847 68.5957 18.9847C70.2581 18.9847 71.1479 20.4598 71.1479 22.6374C71.1479 24.8149 70.2581 26.2666 68.5957 26.2666ZM68.6191 28.9827C72.4825 28.9827 75.0113 26.2432 75.0113 22.6374C75.0113 19.0315 72.4825 16.292 68.6191 16.292C64.7791 16.292 62.2035 19.0315 62.2035 22.6374C62.2035 26.2432 64.7791 28.9827 68.6191 28.9827Z" fill="#2F234F"/>
<path d="M81.6985 32.7525C83.478 32.7525 85.0468 32.3544 86.1005 31.4178C87.0605 30.5515 87.6927 29.2403 87.6927 27.4373V16.6198H84.04V17.9076H83.9931C83.2907 16.9008 82.2136 16.2686 80.6214 16.2686C77.6478 16.2686 75.5873 18.7505 75.5873 22.2627C75.5873 25.9388 78.0926 27.9525 80.7853 27.9525C82.237 27.9525 83.1502 27.3671 83.8526 26.571H83.9463V27.7651C83.9463 29.2168 83.2673 30.0598 81.6517 30.0598C80.3873 30.0598 79.7551 29.5212 79.5444 28.889H75.8448C76.2195 31.3944 78.397 32.7525 81.6985 32.7525ZM81.6751 25.1193C80.2468 25.1193 79.3102 23.9486 79.3102 22.1456C79.3102 20.3193 80.2468 19.1486 81.6751 19.1486C83.2673 19.1486 84.1102 20.5066 84.1102 22.1222C84.1102 23.8081 83.3375 25.1193 81.6751 25.1193Z" fill="#2F234F"/>
<path d="M95.2033 26.2666C93.5409 26.2666 92.6746 24.8149 92.6746 22.6374C92.6746 20.4598 93.5409 18.9847 95.2033 18.9847C96.8658 18.9847 97.7552 20.4598 97.7552 22.6374C97.7552 24.8149 96.8658 26.2666 95.2033 26.2666ZM95.2268 28.9827C99.0898 28.9827 101.619 26.2432 101.619 22.6374C101.619 19.0315 99.0898 16.292 95.2268 16.292C91.3868 16.292 88.8112 19.0315 88.8112 22.6374C88.8112 26.2432 91.3868 28.9827 95.2268 28.9827Z" fill="#2F234F"/>
<path d="M102.734 28.6082H106.55V16.6199H102.734V28.6082ZM102.734 14.9574H106.55V11.8667H102.734V14.9574Z" fill="#2F234F"/>
<path d="M108.206 32.5651H112.022V27.3671H112.069C112.818 28.3739 113.919 28.9827 115.464 28.9827C118.602 28.9827 120.686 26.5007 120.686 22.6139C120.686 19.0081 118.742 16.2686 115.558 16.2686C113.919 16.2686 112.748 16.9944 111.929 18.0715H111.858V16.6198H108.206V32.5651ZM114.481 26.0325C112.842 26.0325 111.905 24.6978 111.905 22.7544C111.905 20.811 112.748 19.3359 114.411 19.3359C116.05 19.3359 116.822 20.6939 116.822 22.7544C116.822 24.7915 115.933 26.0325 114.481 26.0325Z" fill="#2F234F"/>
<path d="M126.899 28.9827C130.037 28.9827 132.355 27.6247 132.355 25.0022C132.355 21.9349 129.873 21.3964 127.766 21.0451C126.244 20.7642 124.886 20.6471 124.886 19.8042C124.886 19.0549 125.612 18.7037 126.548 18.7037C127.602 18.7037 128.328 19.0315 128.468 20.1086H131.98C131.793 17.7437 129.967 16.2686 126.572 16.2686C123.738 16.2686 121.397 17.5798 121.397 20.1086C121.397 22.9183 123.621 23.4803 125.705 23.8315C127.298 24.1125 128.749 24.2295 128.749 25.3066C128.749 26.0793 128.023 26.5008 126.876 26.5008C125.612 26.5008 124.816 25.9154 124.675 24.7212H121.069C121.186 27.3671 123.387 28.9827 126.899 28.9827Z" fill="#2F234F"/>
<path d="M137.539 28.9591C139.202 28.9591 140.256 28.3035 141.122 27.1328H141.192V28.6079H144.845V16.6196H141.028V23.3162C141.028 24.7445 140.232 25.7279 138.921 25.7279C137.703 25.7279 137.118 25.0021 137.118 23.6908V16.6196H133.325V24.4869C133.325 27.1562 134.777 28.9591 137.539 28.9591Z" fill="#2F234F"/>
<path d="M146.505 28.6081H150.322V21.8881C150.322 20.4598 151.024 19.4529 152.219 19.4529C153.366 19.4529 153.904 20.2022 153.904 21.49V28.6081H157.721V21.8881C157.721 20.4598 158.4 19.4529 159.618 19.4529C160.765 19.4529 161.303 20.2022 161.303 21.49V28.6081H165.12V20.811C165.12 18.1183 163.762 16.2686 161.046 16.2686C159.5 16.2686 158.213 16.9242 157.276 18.3759H157.229C156.62 17.0881 155.426 16.2686 153.858 16.2686C152.125 16.2686 150.978 17.0881 150.228 18.329H150.158V16.6198H146.505V28.6081Z" fill="#2F234F"/>
<path fill-rule="evenodd" clip-rule="evenodd" d="M19.6112 39.3398C30.3875 39.3398 39.1233 30.6039 39.1233 19.8276C39.1233 9.05133 30.3875 0.31543 19.6112 0.31543C8.83489 0.31543 0.098999 9.05133 0.098999 19.8276C0.098999 30.6039 8.83489 39.3398 19.6112 39.3398ZM22.6229 15.3911C24.2861 13.7278 24.2861 11.0311 22.6229 9.36778C20.9595 7.70448 18.2629 7.70448 16.5995 9.36778C14.9363 11.0311 14.9363 13.7278 16.5995 15.3911L19.6112 18.4027L22.6229 15.3911ZM24.0477 22.8393C25.7111 24.5026 28.4077 24.5026 30.0711 22.8393C31.7343 21.176 31.7343 18.4793 30.0711 16.816C28.4077 15.1528 25.7111 15.1528 24.0477 16.816L21.0361 19.8277L24.0477 22.8393ZM22.6229 30.2875C24.2861 28.6242 24.2861 25.9275 22.6229 24.2642L19.6112 21.2526L16.5995 24.2642C14.9363 25.9275 14.9363 28.6242 16.5995 30.2875C18.2629 31.9508 20.9595 31.9508 22.6229 30.2875ZM9.15132 22.8393C7.48806 21.176 7.48806 18.4793 9.15132 16.816C10.8147 15.1528 13.5113 15.1528 15.1747 16.816L18.1863 19.8277L15.1747 22.8393C13.5113 24.5026 10.8147 24.5026 9.15132 22.8393Z" fill="#12BB74"/>
</g>
<defs>
<clipPath id="clip0_17_2286">
<rect width="165.854" height="40" fill="white"/>
</clipPath>
</defs>
</svg>
