<svg width="40" height="40" viewBox="0 0 40 40" fill="none" xmlns="http://www.w3.org/2000/svg">
<path d="M32.2167 9.46663L21.7667 3.8333C20.6667 3.2333 19.3333 3.2333 18.2333 3.8333L7.78332 9.46663C7.01665 9.8833 6.54999 10.6833 6.54999 11.6C6.54999 12.5 7.01665 13.3166 7.78332 13.7333L18.2333 19.3666C18.7833 19.6666 19.4 19.8166 20 19.8166C20.6 19.8166 21.2167 19.6666 21.7667 19.3666L32.2167 13.7333C32.9833 13.3166 33.45 12.5166 33.45 11.6C33.45 10.6833 32.9833 9.8833 32.2167 9.46663Z" fill="white"/>
<path d="M16.5166 21.3166L6.78331 16.45C6.03331 16.0833 5.16665 16.1166 4.46665 16.55C3.74998 17 3.33331 17.75 3.33331 18.5833V27.7666C3.33331 29.35 4.21665 30.7833 5.63331 31.5L15.35 36.3666C15.6833 36.5333 16.05 36.6166 16.4166 36.6166C16.85 36.6166 17.2833 36.5 17.6666 36.2666C18.3833 35.8333 18.8 35.0666 18.8 34.2333V25.05C18.8166 23.45 17.9333 22.0166 16.5166 21.3166Z" fill="white"/>
<path d="M35.5333 16.55C34.8167 16.1167 33.95 16.0667 33.2167 16.45L23.5 21.3167C22.0833 22.0333 21.2 23.45 21.2 25.05V34.2333C21.2 35.0667 21.6167 35.8333 22.3333 36.2667C22.7167 36.5 23.15 36.6167 23.5833 36.6167C23.95 36.6167 24.3167 36.5333 24.65 36.3667L34.3667 31.5C35.7833 30.7833 36.6667 29.3667 36.6667 27.7667V18.5833C36.6667 17.75 36.25 17 35.5333 16.55Z" fill="white"/>
</svg>
