<svg width="36" height="36" viewBox="0 0 36 36" fill="none" xmlns="http://www.w3.org/2000/svg">
<path d="M18 3C9.735 3 3 9.735 3 18C3 26.265 9.735 33 18 33C26.265 33 33 26.265 33 18C33 9.735 26.265 3 18 3ZM24.09 16.905L18.795 22.2C18.57 22.425 18.285 22.53 18 22.53C17.715 22.53 17.43 22.425 17.205 22.2L11.91 16.905C11.475 16.47 11.475 15.75 11.91 15.315C12.345 14.88 13.065 14.88 13.5 15.315L18 19.815L22.5 15.315C22.935 14.88 23.655 14.88 24.09 15.315C24.525 15.75 24.525 16.455 24.09 16.905Z" fill="#0B0B1B"/>
</svg>
