<svg width="20" height="20" viewBox="0 0 20 20" fill="none" xmlns="http://www.w3.org/2000/svg">
<path d="M13.4917 1.66663H6.50841C3.47508 1.66663 1.66675 3.47496 1.66675 6.50829V13.4833C1.66675 16.525 3.47508 18.3333 6.50841 18.3333H13.4834C16.5167 18.3333 18.3251 16.525 18.3251 13.4916V6.50829C18.3334 3.47496 16.5251 1.66663 13.4917 1.66663ZM8.25841 13.4916C8.25841 14.025 7.82508 14.4583 7.28341 14.4583C6.75008 14.4583 6.31675 14.025 6.31675 13.4916V10.775C6.31675 10.2416 6.75008 9.80829 7.28341 9.80829C7.82508 9.80829 8.25841 10.2416 8.25841 10.775V13.4916ZM13.6834 13.4916C13.6834 14.025 13.2501 14.4583 12.7167 14.4583C12.1751 14.4583 11.7417 14.025 11.7417 13.4916V6.50829C11.7417 5.97496 12.1751 5.54163 12.7167 5.54163C13.2501 5.54163 13.6834 5.97496 13.6834 6.50829V13.4916Z" fill="#0B0B1B"/>
</svg>
