<svg width="40" height="40" viewBox="0 0 40 40" fill="none" xmlns="http://www.w3.org/2000/svg">
<path d="M26.9834 3.33337H13.0167C6.95004 3.33337 3.33337 6.95004 3.33337 13.0167V26.9667C3.33337 33.05 6.95004 36.6667 13.0167 36.6667H26.9667C33.0334 36.6667 36.65 33.05 36.65 26.9834V13.0167C36.6667 6.95004 33.05 3.33337 26.9834 3.33337ZM16.5667 22.1167C15.4334 23.8167 13.8667 25.2 12.0334 26.1167C11.8667 26.2 11.6667 26.25 11.4834 26.25C11.0167 26.25 10.5834 26 10.3667 25.5667C10.05 24.95 10.3 24.2 10.9334 23.8834C12.3834 23.1667 13.6167 22.0667 14.5 20.7334C14.8 20.2834 14.8 19.7167 14.5 19.2667C13.6 17.9334 12.3667 16.8334 10.9334 16.1167C10.3 15.8167 10.05 15.0667 10.3667 14.4334C10.6667 13.8167 11.4167 13.5667 12.0334 13.8834C13.8667 14.8 15.4334 16.1834 16.5667 17.8834C17.4334 19.1667 17.4334 20.8334 16.5667 22.1167ZM28.3334 26.25H21.6667C20.9834 26.25 20.4167 25.6834 20.4167 25C20.4167 24.3167 20.9834 23.75 21.6667 23.75H28.3334C29.0167 23.75 29.5834 24.3167 29.5834 25C29.5834 25.6834 29.0167 26.25 28.3334 26.25Z" fill="white"/>
</svg>
