<svg width="20" height="20" viewBox="0 0 20 20" fill="none" xmlns="http://www.w3.org/2000/svg">
<path d="M13.4917 1.66663H6.50841C3.47508 1.66663 1.66675 3.47496 1.66675 6.50829V13.4833C1.66675 16.525 3.47508 18.3333 6.50841 18.3333H13.4834C16.5167 18.3333 18.3251 16.525 18.3251 13.4916V6.50829C18.3334 3.47496 16.5251 1.66663 13.4917 1.66663ZM8.28341 11.0583C7.71675 11.9083 6.93341 12.6 6.01675 13.0583C5.93341 13.1 5.83341 13.125 5.74175 13.125C5.50841 13.125 5.29175 13 5.18341 12.7833C5.02508 12.475 5.15008 12.1 5.46675 11.9416C6.19175 11.5833 6.80841 11.0333 7.25008 10.3666C7.40008 10.1416 7.40008 9.85829 7.25008 9.63329C6.80008 8.96663 6.18341 8.41663 5.46675 8.05829C5.15008 7.90829 5.02508 7.53329 5.18341 7.21663C5.33341 6.90829 5.70841 6.78329 6.01675 6.94163C6.93341 7.39996 7.71675 8.09163 8.28341 8.94163C8.71675 9.58329 8.71675 10.4166 8.28341 11.0583ZM14.1667 13.125H10.8334C10.4917 13.125 10.2084 12.8416 10.2084 12.5C10.2084 12.1583 10.4917 11.875 10.8334 11.875H14.1667C14.5084 11.875 14.7917 12.1583 14.7917 12.5C14.7917 12.8416 14.5084 13.125 14.1667 13.125Z" fill="#0B0B1B"/>
</svg>
