<svg width="40" height="40" viewBox="0 0 40 40" fill="none" xmlns="http://www.w3.org/2000/svg">
<path d="M28.3334 36.6666H11.6667C10.9834 36.6666 10.4167 36.1 10.4167 35.4166C10.4167 34.7333 10.9834 34.1666 11.6667 34.1666H28.3334C29.0167 34.1666 29.5834 34.7333 29.5834 35.4166C29.5834 36.1 29.0167 36.6666 28.3334 36.6666Z" fill="white"/>
<path d="M33.9167 9.20002L27.25 13.9667C26.3667 14.6 25.1 14.2167 24.7167 13.2L21.5667 4.80002C21.0333 3.35002 18.9833 3.35002 18.45 4.80002L15.2833 13.1834C14.9 14.2167 13.65 14.6 12.7667 13.95L6.1 9.18336C4.76667 8.25002 3 9.56669 3.55 11.1167L10.4833 30.5334C10.7167 31.2 11.35 31.6334 12.05 31.6334H27.9333C28.6333 31.6334 29.2667 31.1834 29.5 30.5334L36.4333 11.1167C37 9.56669 35.2333 8.25002 33.9167 9.20002ZM24.1667 24.5834H15.8333C15.15 24.5834 14.5833 24.0167 14.5833 23.3334C14.5833 22.65 15.15 22.0834 15.8333 22.0834H24.1667C24.85 22.0834 25.4167 22.65 25.4167 23.3334C25.4167 24.0167 24.85 24.5834 24.1667 24.5834Z" fill="white"/>
</svg>
