<svg width="20" height="20" viewBox="0 0 20 20" fill="none" xmlns="http://www.w3.org/2000/svg">
<path fill-rule="evenodd" clip-rule="evenodd" d="M13.2334 17.4333C13.2584 17.5667 13.1833 17.7083 13.0583 17.7583C12.1167 18.1333 11.0834 18.3333 10.0167 18.3333C8.17503 18.3333 6.47501 17.7417 5.10001 16.725C4.98335 16.6417 4.95004 16.475 5.02504 16.35C5.48337 15.5333 7.275 12.9083 11.2333 11.4417C11.3833 11.3833 11.55 11.4583 11.6 11.6083C12.5917 14.2667 13.0584 16.5167 13.2334 17.4333Z" fill="#FFE7C2"/>
<path fill-rule="evenodd" clip-rule="evenodd" d="M18.1833 11.5752C17.8 13.6252 16.65 15.4085 15.0417 16.6252C14.8667 16.7585 14.6167 16.6585 14.575 16.4502C14.4 15.5502 13.975 13.6085 13.1583 11.3002C13.1 11.1252 13.2167 10.9335 13.4 10.9085C15.475 10.6585 17.2917 11.0585 17.975 11.2418C18.1167 11.2918 18.2083 11.4335 18.1833 11.5752Z" fill="#FFE7C2"/>
<path fill-rule="evenodd" clip-rule="evenodd" d="M17.9917 9.85021C17.1417 9.70021 14.975 9.38352 12.7583 9.62519C12.625 9.64186 12.5083 9.56686 12.45 9.44186C12.4166 9.36686 12.3917 9.29187 12.3583 9.21687C12.225 8.90853 12.0833 8.59187 11.9417 8.28354C11.8667 8.13354 11.9416 7.95019 12.0916 7.88353C14.425 6.87519 15.725 5.57519 16.2333 4.99186C16.3583 4.85019 16.575 4.85854 16.6917 5.00854C17.65 6.28354 18.2416 7.84186 18.3333 9.5252C18.3416 9.73353 18.175 9.88354 17.9917 9.85021Z" fill="#FFE7C2"/>
<path fill-rule="evenodd" clip-rule="evenodd" d="M15.3666 3.99147C14.9333 4.51647 13.7166 5.76645 11.4083 6.68312C11.275 6.74145 11.1166 6.68312 11.0416 6.54978C9.97496 4.61645 8.84161 2.99146 8.31661 2.25812C8.19161 2.08312 8.29164 1.83313 8.49997 1.7998C8.98331 1.71647 9.49164 1.6748 10.0083 1.6748C12.025 1.6748 13.8833 2.39146 15.325 3.59146C15.45 3.68313 15.4666 3.86647 15.3666 3.99147Z" fill="#FFE7C2"/>
<path fill-rule="evenodd" clip-rule="evenodd" d="M9.18335 7.36651C6.02502 8.15818 3.23331 8.26652 2.21665 8.28318C2.02498 8.28318 1.88334 8.09985 1.93334 7.91651C2.53334 5.58318 4.13333 3.63319 6.24166 2.55819C6.36666 2.49152 6.525 2.53317 6.60833 2.64984C7.04166 3.24984 8.21666 4.94152 9.36666 6.93319C9.45833 7.09985 9.37502 7.31651 9.18335 7.36651Z" fill="#FFE7C2"/>
<path fill-rule="evenodd" clip-rule="evenodd" d="M10.7667 9.66684C10.8417 9.82518 10.7501 10.0168 10.5834 10.0752C6.89172 11.2668 4.68338 14.2252 4.01671 15.2418C3.90838 15.4085 3.67505 15.4168 3.55005 15.2668C2.38338 13.8335 1.67505 12.1918 1.67505 10.2002V10.0502C1.67505 9.8835 1.80837 9.75016 1.97504 9.7585C3.02504 9.80016 6.45005 9.65849 10.0084 8.63349C10.1417 8.59183 10.2917 8.65851 10.35 8.78351C10.4917 9.07518 10.6334 9.36684 10.7667 9.66684Z" fill="#FFE7C2"/>
</svg>
