<svg width="32" height="32" viewBox="0 0 32 32" fill="none" xmlns="http://www.w3.org/2000/svg">
<circle cx="16" cy="16" r="16" fill="#4920E4"/>
<path d="M18.685 16C18.685 17.485 17.485 18.685 16 18.685C14.515 18.685 13.315 17.485 13.315 16C13.315 14.515 14.515 13.315 16 13.315C17.485 13.315 18.685 14.515 18.685 16Z" stroke="white" stroke-width="1.5" stroke-linecap="round" stroke-linejoin="round"/>
<path d="M16 22.2025C18.6475 22.2025 21.115 20.6425 22.8325 17.9425C23.5075 16.885 23.5075 15.1075 22.8325 14.05C21.115 11.35 18.6475 9.78998 16 9.78998C13.3525 9.78998 10.885 11.35 9.1675 14.05C8.4925 15.1075 8.4925 16.885 9.1675 17.9425C10.885 20.6425 13.3525 22.2025 16 22.2025Z" stroke="white" stroke-width="1.5" stroke-linecap="round" stroke-linejoin="round"/>
</svg>
