<svg width="150" height="151" viewBox="0 0 150 151" fill="none" xmlns="http://www.w3.org/2000/svg">
<rect x="9.5" width="140" height="140" rx="70" fill="#12BB74"/>
<path d="M107.383 66.3249L103.417 61.7166C102.658 60.8416 102.046 59.2082 102.046 58.0416V53.0832C102.046 49.9916 99.5083 47.4541 96.4166 47.4541H91.4583C90.3208 47.4541 88.6583 46.8416 87.7833 46.0832L83.175 42.1166C81.1625 40.3957 77.8666 40.3957 75.825 42.1166L71.2458 46.1124C70.3708 46.8416 68.7083 47.4541 67.5708 47.4541H62.525C59.4333 47.4541 56.8958 49.9916 56.8958 53.0832V58.0707C56.8958 59.2082 56.2833 60.8416 55.5542 61.7166L51.6167 66.3541C49.925 68.3666 49.925 71.6332 51.6167 73.6457L55.5542 78.2832C56.2833 79.1582 56.8958 80.7916 56.8958 81.9291V86.9165C56.8958 90.0082 59.4333 92.5457 62.525 92.5457H67.5708C68.7083 92.5457 70.3708 93.1582 71.2458 93.9166L75.8542 97.8832C77.8667 99.6041 81.1625 99.6041 83.2042 97.8832L87.8125 93.9166C88.6875 93.1582 90.3208 92.5457 91.4875 92.5457H96.4458C99.5375 92.5457 102.075 90.0082 102.075 86.9165V81.9582C102.075 80.8207 102.687 79.1582 103.446 78.2832L107.412 73.6749C109.104 71.6624 109.104 68.3374 107.383 66.3249ZM93.15 69.9999L89.7375 80.3832C89.3 82.1041 87.4625 83.5041 85.5958 83.5041H80.2C79.2666 83.5041 77.9542 83.1832 77.3708 82.5999L73.0833 79.2457C72.9958 81.1124 72.15 81.8999 70.0792 81.8999H68.6791C66.5208 81.8999 65.6458 81.0541 65.6458 79.0124V65.0707C65.6458 63.0291 66.5208 62.1832 68.6791 62.1832H70.1083C72.2666 62.1832 73.1416 63.0291 73.1416 65.0707V66.1207L78.8 57.7207C79.3833 56.8166 80.8708 56.1749 82.125 56.6707C83.4958 57.1374 84.3708 58.6541 84.0792 59.9957L83.3792 64.5457C83.3208 64.9541 83.4083 65.3332 83.6708 65.6249C83.9042 65.8874 84.2542 66.0624 84.6333 66.0624H90.3208C91.4291 66.0624 92.3625 66.4999 92.9167 67.2874C93.4125 68.0457 93.5 69.0082 93.15 69.9999Z" fill="white"/>
<rect x="2.5" y="95" width="54" height="54" rx="27" fill="#0B0B1B"/>
<rect x="2.5" y="95" width="54" height="54" rx="27" stroke="white" stroke-width="4"/>
<path d="M29.144 113.154C30.2733 113.154 31.234 113.352 32.026 113.748C32.8327 114.129 33.4413 114.657 33.852 115.332C34.2627 115.992 34.468 116.74 34.468 117.576C34.468 118.588 34.2187 119.402 33.72 120.018C33.2213 120.619 32.6273 121.001 31.938 121.162V121.25C33.8153 121.925 34.754 123.171 34.754 124.99C34.754 125.914 34.5413 126.728 34.116 127.432C33.6907 128.136 33.0747 128.686 32.268 129.082C31.476 129.463 30.5227 129.654 29.408 129.654C27.56 129.654 26.1007 129.207 25.03 128.312C23.974 127.417 23.4167 126.031 23.358 124.154H27.582C27.5527 125.43 28.1027 126.068 29.232 126.068C29.628 126.068 29.9433 125.943 30.178 125.694C30.4273 125.43 30.552 125.093 30.552 124.682C30.552 124.154 30.3687 123.758 30.002 123.494C29.65 123.23 29.078 123.098 28.286 123.098H27.516V119.6H28.264C28.836 119.6 29.3127 119.505 29.694 119.314C30.0753 119.109 30.266 118.705 30.266 118.104C30.266 117.649 30.156 117.312 29.936 117.092C29.716 116.857 29.4227 116.74 29.056 116.74C28.6453 116.74 28.33 116.901 28.11 117.224C27.9047 117.532 27.7873 117.928 27.758 118.412H23.556C23.6147 116.711 24.1207 115.413 25.074 114.518C26.042 113.609 27.3987 113.154 29.144 113.154Z" fill="white"/>
</svg>
