<svg width="150" height="150" viewBox="0 0 150 150" fill="none" xmlns="http://www.w3.org/2000/svg">
<rect x="9.5" width="140" height="140" rx="70" fill="#E64D56"/>
<path d="M108.667 72.5083C108.667 79.1875 105.225 85.1083 99.9167 88.8417L96.0084 97.4459C95.1042 99.4 92.4792 99.7792 91.1084 98.1167L86.7917 92.925C81.3667 92.925 76.3792 91.0875 72.5875 88.025L74.3375 85.9542C87.8125 84.9333 98.4584 74.2584 98.4584 61.25C98.4584 59.0333 98.1375 56.8458 97.5542 54.7458C104.175 58.2458 108.667 64.8958 108.667 72.5083Z" fill="white"/>
<path d="M92.0416 52.7041C88.6291 45.7041 81.0166 40.8333 72.2083 40.8333C60.1333 40.8333 50.3333 49.9624 50.3333 61.2499C50.3333 67.9291 53.775 73.8499 59.0833 77.5833L62.9916 86.1874C63.8958 88.1416 66.5208 88.4916 67.8916 86.8583L69.4958 84.9333L72.2083 81.6666C84.2833 81.6666 94.0833 72.5374 94.0833 61.2499C94.0833 58.1874 93.3541 55.2999 92.0416 52.7041ZM79.5 63.4374H64.9166C63.7208 63.4374 62.7291 62.4458 62.7291 61.2499C62.7291 60.0541 63.7208 59.0624 64.9166 59.0624H79.5C80.6958 59.0624 81.6875 60.0541 81.6875 61.2499C81.6875 62.4458 80.6958 63.4374 79.5 63.4374Z" fill="white"/>
<rect x="2.5" y="94" width="54" height="54" rx="27" fill="#0B0B1B"/>
<rect x="2.5" y="94" width="54" height="54" rx="27" stroke="white" stroke-width="4"/>
<path d="M25.242 116.994V112.924H32.106V128.5H27.574V116.994H25.242Z" fill="white"/>
</svg>
