<svg width="40" height="40" viewBox="0 0 40 40" fill="none" xmlns="http://www.w3.org/2000/svg">
<path d="M36.6667 21.4332C36.6667 25.2499 34.7 28.6332 31.6667 30.7665L29.4333 35.6832C28.9167 36.7999 27.4167 37.0165 26.6333 36.0665L24.1667 33.0999C21.0667 33.0999 18.2167 32.0499 16.05 30.2999L17.05 29.1165C24.75 28.5332 30.8333 22.4332 30.8333 14.9999C30.8333 13.7332 30.65 12.4832 30.3167 11.2832C34.1 13.2832 36.6667 17.0832 36.6667 21.4332Z" fill="white"/>
<path d="M27.1667 10.1168C25.2167 6.11683 20.8667 3.3335 15.8333 3.3335C8.93334 3.3335 3.33334 8.55016 3.33334 15.0002C3.33334 18.8168 5.30001 22.2002 8.33334 24.3335L10.5667 29.2502C11.0833 30.3668 12.5833 30.5668 13.3667 29.6335L14.2833 28.5335L15.8333 26.6668C22.7333 26.6668 28.3333 21.4502 28.3333 15.0002C28.3333 13.2502 27.9167 11.6002 27.1667 10.1168ZM20 16.2502H11.6667C10.9833 16.2502 10.4167 15.6835 10.4167 15.0002C10.4167 14.3168 10.9833 13.7502 11.6667 13.7502H20C20.6833 13.7502 21.25 14.3168 21.25 15.0002C21.25 15.6835 20.6833 16.2502 20 16.2502Z" fill="white"/>
</svg>
