<svg width="150" height="154" viewBox="0 0 150 154" fill="none" xmlns="http://www.w3.org/2000/svg">
<rect x="9.5" width="140" height="140" rx="70" fill="#4920E4"/>
<path d="M97 72.9167C88.95 72.9167 82.4166 79.4501 82.4166 87.5001C82.4166 95.5501 88.95 102.083 97 102.083C105.05 102.083 111.583 95.5501 111.583 87.5001C111.583 79.4501 105.05 72.9167 97 72.9167ZM94.55 91.2042C95.2791 91.9334 95.2791 93.1292 94.55 93.8876C94.1708 94.2667 93.7041 94.4417 93.2083 94.4417C92.7125 94.4417 92.2458 94.2667 91.8666 93.8876L86.8208 88.8417C86.0916 88.1126 86.0916 86.9167 86.8208 86.1584L91.8666 81.1126C92.5958 80.3834 93.7916 80.3834 94.55 81.1126C95.2791 81.8417 95.2791 83.0376 94.55 83.7959L90.8458 87.5001L94.55 91.2042ZM107.15 88.8417L102.104 93.8876C101.725 94.2667 101.258 94.4417 100.762 94.4417C100.267 94.4417 99.8 94.2667 99.4208 93.8876C98.6916 93.1584 98.6916 91.9626 99.4208 91.2042L103.154 87.5001L99.45 83.7959C98.7208 83.0667 98.7208 81.8709 99.45 81.1126C100.179 80.3834 101.375 80.3834 102.133 81.1126L107.179 86.1584C107.879 86.9167 107.879 88.0834 107.15 88.8417Z" fill="white"/>
<path d="M105.75 55.4166V68.4541C105.75 69.4749 104.758 70.1749 103.825 69.8249C100.588 68.5707 96.9708 68.1624 93.1792 68.9207C85.5958 70.4374 79.5583 76.6499 78.3042 84.2916C77.5458 88.9582 78.4792 93.3624 80.6083 96.9499C81.1917 97.9416 80.4917 99.1666 79.3542 99.1666H67.8333C57.625 99.1666 53.25 93.3332 53.25 84.5832V55.4166C53.25 47.6582 56.6917 42.2041 64.5958 41.0666C65.4417 40.9499 66.2 41.6207 66.2292 42.4957L66.3167 45.4416C66.4042 50.1082 70.3417 53.9582 75.0667 53.9582H83.875C88.6875 53.9582 92.625 50.0207 92.625 45.2082V42.4957C92.625 41.6207 93.3833 40.9207 94.2292 41.0374C102.25 42.1166 105.75 47.5999 105.75 55.4166Z" fill="white"/>
<path d="M88.25 43.7499V45.2083C88.25 47.5999 86.2667 49.5833 83.875 49.5833H75.0375C72.675 49.5833 70.7208 47.6874 70.6625 45.3249L70.6333 43.8374C70.575 42.1749 71.8875 40.8333 73.55 40.8333H85.3333C86.9375 40.8333 88.25 42.1458 88.25 43.7499Z" fill="white"/>
<rect x="2.5" y="98" width="54" height="54" rx="27" fill="#0B0B1B"/>
<rect x="2.5" y="98" width="54" height="54" rx="27" stroke="white" stroke-width="4"/>
<path d="M23.682 129.068C25.6913 127.587 27.2973 126.23 28.5 124.998C29.7027 123.751 30.304 122.629 30.304 121.632C30.304 120.664 29.9153 120.18 29.138 120.18C28.698 120.18 28.3753 120.349 28.17 120.686C27.9793 121.023 27.8767 121.581 27.862 122.358H23.66C23.748 120.407 24.3347 118.955 25.42 118.002C26.5053 117.034 27.862 116.55 29.49 116.55C31.2647 116.55 32.5773 116.99 33.428 117.87C34.2787 118.75 34.704 119.865 34.704 121.214C34.704 122.666 34.1833 124.059 33.142 125.394C32.1153 126.729 30.8467 127.865 29.336 128.804H34.924V132.302H23.682V129.068Z" fill="white"/>
</svg>
