<svg width="120" height="103" viewBox="0 0 120 103" fill="none" xmlns="http://www.w3.org/2000/svg">
<path d="M6.88672 103C2.88672 85.3333 0.886719 70 0.886719 57C0.886719 38.3333 5.22005 24.3333 13.8867 15C22.5534 5.33331 35.2201 0.499976 51.8867 0.499976V20.5C43.2201 20.5 36.8867 22.8333 32.8867 27.5C29.2201 32.1667 27.3867 39.1667 27.3867 48.5V60H52.3867V103H6.88672ZM74.3867 103C70.3867 85.3333 68.3867 70 68.3867 57C68.3867 38.3333 72.7201 24.3333 81.3867 15C90.0534 5.33331 102.72 0.499976 119.387 0.499976V20.5C110.72 20.5 104.387 22.8333 100.387 27.5C96.7201 32.1667 94.8867 39.1667 94.8867 48.5V60H119.887V103H74.3867Z" fill="#F4F5F8"/>
</svg>
