<svg width="20" height="20" viewBox="0 0 20 20" fill="none" xmlns="http://www.w3.org/2000/svg">
<path d="M14.1666 2.9165H5.83329C3.33329 2.9165 1.66663 4.1665 1.66663 7.08317V12.9165C1.66663 15.8332 3.33329 17.0832 5.83329 17.0832H14.1666C16.6666 17.0832 18.3333 15.8332 18.3333 12.9165V7.08317C18.3333 4.1665 16.6666 2.9165 14.1666 2.9165ZM14.5583 7.9915L11.95 10.0748C11.4 10.5165 10.7 10.7332 9.99996 10.7332C9.29996 10.7332 8.59163 10.5165 8.04996 10.0748L5.44163 7.9915C5.17496 7.77484 5.13329 7.37484 5.34163 7.10817C5.55829 6.8415 5.94996 6.7915 6.21663 7.00817L8.82496 9.0915C9.45829 9.59984 10.5333 9.59984 11.1666 9.0915L13.775 7.00817C14.0416 6.7915 14.4416 6.83317 14.65 7.10817C14.8666 7.37484 14.825 7.77484 14.5583 7.9915Z" fill="#FFE7C2"/>
</svg>
